<?xml version="1.0" encoding="UTF-8" standalone="no"?>
<svg
   xmlns:dc="http://purl.org/dc/elements/1.1/"
   xmlns:cc="http://creativecommons.org/ns#"
   xmlns:rdf="http://www.w3.org/1999/02/22-rdf-syntax-ns#"
   xmlns:svg="http://www.w3.org/2000/svg"
   xmlns="http://www.w3.org/2000/svg"
   xmlns:sodipodi="http://sodipodi.sourceforge.net/DTD/sodipodi-0.dtd"
   xmlns:inkscape="http://www.inkscape.org/namespaces/inkscape"
   version="1.1"
   x="0px"
   y="0px"
   viewBox="0 0 20 20"
   enable-background="new 0 0 24 24"
   xml:space="preserve"
   id="svg20"
   sodipodi:docname="panorama_icon_1.svg"
   width="20"
   height="20"
   inkscape:version="0.92.4 (5da689c313, 2019-01-14)"><metadata
     id="metadata26"><rdf:RDF><cc:Work
         rdf:about=""><dc:format>image/svg+xml</dc:format><dc:type
           rdf:resource="http://purl.org/dc/dcmitype/StillImage" /><dc:title></dc:title></cc:Work></rdf:RDF></metadata><defs
     id="defs24" /><sodipodi:namedview
     pagecolor="#ffffff"
     bordercolor="#666666"
     borderopacity="1"
     objecttolerance="10"
     gridtolerance="10"
     guidetolerance="10"
     inkscape:pageopacity="0"
     inkscape:pageshadow="2"
     inkscape:window-width="1920"
     inkscape:window-height="1001"
     id="namedview22"
     showgrid="false"
     inkscape:pagecheckerboard="true"
     inkscape:zoom="1.9666667"
     inkscape:cx="-87.561159"
     inkscape:cy="12.106941"
     inkscape:window-x="-9"
     inkscape:window-y="-9"
     inkscape:window-maximized="1"
     inkscape:current-layer="svg20" /><g
     id="g14"
     transform="matrix(0.77371437,0,0,0.77371437,0.71542752,0.71551346)"
     style="fill:#092a95;fill-opacity:1;stroke:#092a95;stroke-opacity:1"><g
       id="g10"
       style="fill:#092a95;fill-opacity:1;stroke:#092a95;stroke-opacity:1"><g
         id="g6"
         style="fill:#092a95;fill-opacity:1;stroke:#092a95;stroke-opacity:1"><path
           d="m 2.6,15.011 c 0,0 0.464,-2.921 7.659,-1.872 0.696,-0.749 3.945,-4.044 3.945,-4.044 l 3.249,2.958 1.625,-1.46 2.321,4.419 H 2.6 Z"
           id="path2"
           inkscape:connector-curvature="0"
           style="fill:#092a95;fill-opacity:1;stroke:#092a95;stroke-opacity:1" /><path
           d="m 21.419,15.511 c -0.007,0 -0.013,0 -0.02,0 H 2.601 c -0.146,0 -0.285,-0.064 -0.38,-0.175 -0.095,-0.111 -0.136,-0.259 -0.113,-0.403 0.016,-0.103 0.456,-2.521 5.313,-2.521 0.802,0 1.693,0.066 2.652,0.196 0.938,-0.984 3.652,-3.738 3.776,-3.864 0.189,-0.191 0.494,-0.2 0.692,-0.019 l 2.915,2.653 1.289,-1.158 c 0.115,-0.103 0.272,-0.147 0.422,-0.12 0.152,0.027 0.283,0.123 0.354,0.26 l 2.264,4.31 c 0.083,0.089 0.134,0.209 0.134,0.341 0,0.277 -0.224,0.5 -0.5,0.5 z m -17.945,-1 h 17.098 l -1.637,-3.117 -1.147,1.031 c -0.19,0.172 -0.481,0.17 -0.67,-0.002 L 14.224,9.789 c -0.85,0.863 -3.047,3.099 -3.598,3.691 -0.112,0.12 -0.274,0.176 -0.438,0.154 -1.01,-0.147 -1.941,-0.222 -2.767,-0.222 -2.377,0 -3.461,0.612 -3.947,1.099 z"
           id="path4"
           inkscape:connector-curvature="0"
           style="fill:#092a95;fill-opacity:1;stroke:#092a95;stroke-opacity:1" /></g><ellipse
         cx="5.9239998"
         cy="9.0950003"
         rx="1.973"
         ry="1.273"
         id="ellipse8"
         style="fill:#092a95;fill-opacity:1;stroke:#092a95;stroke-opacity:1" /></g><path
       d="M 0.703,20.443 C 0.612,20.443 0.52,20.418 0.44,20.368 0.293,20.277 0.203,20.116 0.203,19.943 V 4.057 C 0.203,3.885 0.292,3.724 0.438,3.633 0.584,3.542 0.768,3.531 0.922,3.608 0.967,3.63 5.512,5.806 12,5.806 c 3.821,0 7.558,-0.744 11.106,-2.211 0.155,-0.063 0.331,-0.047 0.469,0.046 0.139,0.093 0.222,0.249 0.222,0.416 v 15.886 c 0,0.175 -0.091,0.336 -0.241,0.427 -0.15,0.091 -0.335,0.096 -0.49,0.016 -0.048,-0.025 -4.897,-2.506 -11.38,-2.506 -3.809,0 -7.428,0.844 -10.759,2.51 -0.071,0.036 -0.147,0.053 -0.224,0.053 z m 10.983,-3.562 c 5.316,0 9.486,1.563 11.111,2.276 V 4.795 C 19.334,6.13 15.706,6.806 12,6.806 6.724,6.806 2.763,5.451 1.203,4.82 v 14.329 c 3.269,-1.506 6.792,-2.268 10.483,-2.268 z"
       id="path12"
       inkscape:connector-curvature="0"
       style="fill:#092a95;fill-opacity:1;stroke:#092a95;stroke-opacity:1" /></g></svg>